# xmcd CD database file
#
# Track frame offsets:
#	150
#	17455
#	30605
#	46328
#	61415
#	75893
#	91900
#	108993
#	123933
#	143300
#	155360
#	170533
#
# Disc length: 2452 seconds
#
# Revision: 0
# Processed by: cddbd v1.5.1PL0 Copyright (c) Steve Scherf et al.
# Submitted via: CDex 1.50beta9
#
DISCID=7f09920c
DTITLE=Herbie Mann - Love and the weather
DYEAR=1900
DGENRE=Jazz
TTITLE0=Love and the weather
TTITLE1=But beautiful
TTITLE2=Spring can really hang you up the most
TTITLE3=I'm glad there is you
TTITLE4=A sinner kissed an angel
TTITLE5=High on a windy hill
TTITLE6=Ill wind
TTITLE7=For heaven's sake
TTITLE8=Autumn nocturne
TTITLE9=Moon love
TTITLE10=The morning side of the mountain
TTITLE11=Like someone in love
EXTD=
EXTT0=
EXTT1=
EXTT2=
EXTT3=
EXTT4=
EXTT5=
EXTT6=
EXTT7=
EXTT8=
EXTT9=
EXTT10=
EXTT11=
PLAYORDER=
